<?xml version="1.0" encoding="utf-8"?>
<!-- Generator: Adobe Illustrator 28.3.0, SVG Export Plug-In . SVG Version: 6.00 Build 0)  -->
<svg version="1.1" id="Layer_1" xmlns="http://www.w3.org/2000/svg" xmlns:xlink="http://www.w3.org/1999/xlink" x="0px" y="0px"
	 viewBox="0 0 1500 1000" style="enable-background:new 0 0 1500 1000;" xml:space="preserve">
<style type="text/css">
	.st0{fill:#F7DF1E;}
</style>
<rect x="350" y="100" class="st0" width="800" height="800"/>
<path d="M887.4,725c16.11,26.31,37.08,45.65,74.16,45.65c31.15,0,51.05-15.57,51.05-37.08c0-25.78-20.44-34.91-54.73-49.9
	l-18.79-8.06c-54.25-23.11-90.29-52.06-90.29-113.27c0-56.38,42.96-99.3,110.1-99.3c47.8,0,82.16,16.63,106.92,60.19l-58.54,37.59
	c-12.89-23.11-26.79-32.22-48.38-32.22c-22.02,0-35.97,13.97-35.97,32.22c0,22.55,13.97,31.68,46.22,45.65l18.79,8.05
	c63.87,27.39,99.94,55.31,99.94,118.1c0,67.68-53.17,104.76-124.57,104.76c-69.82,0-114.92-33.27-136.99-76.88L887.4,725z
	 M621.83,731.52c11.81,20.95,22.55,38.67,48.38,38.67c24.7,0,40.28-9.66,40.28-47.24V467.33h75.17v256.63
	c0,77.84-45.64,113.27-112.25,113.27c-60.19,0-95.05-31.15-112.77-68.67L621.83,731.52z"/>
</svg>
