<?xml version="1.0" encoding="utf-8"?>
<!-- Generator: Adobe Illustrator 28.3.0, SVG Export Plug-In . SVG Version: 6.00 Build 0)  -->
<svg version="1.1" id="Layer_1" xmlns="http://www.w3.org/2000/svg" xmlns:xlink="http://www.w3.org/1999/xlink" x="0px" y="0px"
	 viewBox="0 0 1500 1000" style="enable-background:new 0 0 1500 1000;" xml:space="preserve">
<style type="text/css">
	.st0{fill:#FF3E00;}
	.st1{fill:#FFFFFF;}
	.st2{fill:#4A4A55;}
</style>
<path class="st0" d="M412.88,376.78c14.94,20.99,20.8,46.9,16.26,72.25c-2.08,11.92-6.81,23.26-13.43,33.48
	c9.83,18.53,13.05,39.91,9.27,60.52c-4.54,24.78-19.1,46.53-40.47,59.95l-78.11,49.74c-44.44,28.37-106.1,15.13-137.12-29.5
	c-14.94-20.61-20.8-46.71-16.26-72.06c2.08-11.91,6.81-23.26,13.43-33.48c-9.83-18.53-13.05-39.91-9.27-60.52
	c4.54-24.78,19.1-46.71,40.47-59.95l78.11-49.93C320.21,318.91,381.67,332.15,412.88,376.78"/>
<path class="st1" d="M268.01,627.76c5.67-1.51,10.97-3.78,15.89-7l78.11-49.74c12.86-8.13,21.75-21.18,24.4-36.12
	c2.65-15.13-0.76-30.83-9.83-43.5c-14.75-21.37-41.42-31.21-66.57-24.78c-5.67,1.51-10.97,3.78-15.89,7l-29.88,18.91
	c-1.51,0.95-3.03,1.7-4.73,2.08c-7.57,1.89-15.7-0.95-20.05-7.38c-2.65-3.78-3.78-8.51-3.03-13.05s3.4-8.51,7.38-10.78l78.11-49.74
	c1.51-0.95,3.03-1.7,4.73-2.08c7.57-1.89,15.7,0.95,20.05,7.38c2.46,3.4,3.59,7.57,3.22,11.54v2.84c-0.19,0,2.65,0.95,2.65,0.95
	c10.97,3.4,21.37,8.51,30.64,15.32l3.97,3.03l1.51-4.54c0.76-2.46,1.32-4.92,1.89-7.38c2.65-15.13-0.76-30.83-9.83-43.5
	c-14.75-21.37-41.42-31.21-66.57-24.78c-5.67,1.51-10.97,3.78-15.89,7l-78.11,49.74c-12.86,8.13-21.75,21.18-24.4,36.12
	c-2.65,15.13,0.76,30.83,9.83,43.5c14.75,21.37,41.42,31.21,66.57,24.78c5.67-1.51,10.97-3.78,15.89-7l29.88-19.1
	c1.51-0.95,3.03-1.7,4.73-2.08c7.57-1.89,15.7,0.95,20.05,7.38c2.65,3.78,3.78,8.51,3.03,13.05c-0.76,4.54-3.4,8.51-7.38,10.97
	l-78.11,49.74c-1.51,0.95-3.03,1.7-4.73,2.08c-7.57,1.89-15.7-0.95-20.05-7.38c-2.46-3.4-3.59-7.57-3.22-11.54v-2.84
	c0.19,0-2.65-0.95-2.65-0.95c-10.97-3.4-21.37-8.51-30.64-15.32l-3.97-3.03l-1.51,4.54c-0.76,2.46-1.32,4.92-1.89,7.38
	c-2.65,15.13,0.76,30.83,9.83,43.5C216.19,624.35,242.85,634.19,268.01,627.76"/>
<path class="st2" d="M609.19,574.23c-11.73,0.38-23.26-3.03-32.91-9.27c-9.08-6.05-15.89-15.13-19.29-25.53l20.05-7.38
	c2.84,6.43,7.38,11.92,13.05,15.89c5.86,3.97,12.86,6.05,19.86,5.86c6.81,0.38,13.43-1.7,18.91-5.67c4.73-3.97,7.38-10.21,7-16.45
	c0-2.84-0.57-5.67-1.89-8.32c-1.13-2.27-2.65-4.35-4.35-6.24c-2.27-2.08-4.73-3.78-7.57-5.11c-3.4-1.7-6.24-3.03-8.51-3.97
	c-2.27-0.95-5.48-2.08-10.02-3.59c-5.48-1.89-9.65-3.4-12.29-4.54c-3.78-1.51-7.38-3.4-10.78-5.48c-3.78-1.89-7.19-4.54-10.02-7.57
	c-2.46-3.03-4.54-6.24-6.05-10.02c-5.86-14.18-1.89-30.45,9.65-40.28c8.13-7.19,19.29-10.78,33.48-10.78
	c11.73,0,21.37,2.65,28.94,7.75c7.38,4.92,12.67,12.29,15.32,20.61l-19.67,6.62c-1.89-4.35-5.3-8.13-9.46-10.59
	c-5.11-2.84-10.78-4.16-16.64-3.97c-5.67-0.38-11.35,1.32-16.08,4.54c-3.97,3.03-6.05,7.75-5.86,12.67c0,3.78,1.7,7.38,4.54,9.83
	c2.65,2.65,5.86,4.92,9.46,6.43c3.22,1.32,8.32,3.22,14.94,5.48c4.16,1.51,7.19,2.65,9.08,3.4c1.89,0.76,4.92,2.08,8.7,3.78
	c3.03,1.32,6.05,3.03,8.89,4.73c2.46,1.89,4.92,3.78,7.19,5.86c2.46,2.08,4.54,4.73,6.24,7.57c1.51,2.84,2.84,6.05,3.59,9.27
	c1.13,3.78,1.51,7.75,1.51,11.54c0,13.43-4.54,23.83-13.81,31.4c-9.08,7.57-20.99,11.35-35.18,11.35L609.19,574.23z M740.45,571.77
	l-49.17-143.36h22.88l32.53,100.05c1.89,5.3,3.22,10.78,4.54,16.45c1.13-5.48,2.65-10.97,4.54-16.45l32.15-100.05h22.7
	l-48.98,143.36h-21.37H740.45z M854.3,571.77V428.42h88.89v20.05h-67.71v39.34h43.69v20.05h-43.69v43.88h72.06v20.05h-93.43H854.3z
	 M1002.01,571.77V428.42h21.37v122.93h70.17v20.43h-91.35H1002.01z M1173.74,448.84v122.93h-21.37V448.84h-40.66v-20.43h102.51
	v20.43h-40.66H1173.74z M1258.28,571.77V428.42h88.89v20.05h-67.71v39.34h43.69v20.05h-43.69v43.88h72.06v20.05h-93.43H1258.28z"/>
</svg>
