<?xml version="1.0" encoding="utf-8"?>
<!-- Generator: Adobe Illustrator 28.3.0, SVG Export Plug-In . SVG Version: 6.00 Build 0)  -->
<svg version="1.1" id="Layer_1" xmlns="http://www.w3.org/2000/svg" xmlns:xlink="http://www.w3.org/1999/xlink" x="0px" y="0px"
	 viewBox="0 0 1500 1000" style="enable-background:new 0 0 1500 1000;" xml:space="preserve">
<g>
	<path d="M750.02,100c-220.57,0-400.01,179.43-400.01,399.98c0,220.57,179.44,400.02,400,400.02
		c220.55,0,399.98-179.44,399.98-400.02C1149.99,279.43,970.57,100,750.02,100z M390.37,499.98c0-52.13,11.18-101.64,31.14-146.35
		l171.55,470.02C473.11,765.35,390.37,642.34,390.37,499.98z M750.02,859.64c-35.3,0-69.38-5.18-101.6-14.66l107.9-313.54
		L866.88,834.3c0.71,1.79,1.59,3.42,2.56,4.95C832.06,852.4,791.9,859.64,750.02,859.64z M799.57,331.37
		c21.65-1.14,41.17-3.42,41.17-3.42c19.37-2.29,17.1-30.76-2.3-29.63c0,0-58.25,4.56-95.86,4.56c-35.33,0-94.73-4.56-94.73-4.56
		c-19.38-1.14-21.65,28.49-2.27,29.63c0,0,18.35,2.29,37.71,3.42l56.03,153.52l-78.7,236.03L529.68,331.38
		c21.68-1.13,41.16-3.42,41.16-3.42c19.37-2.29,17.08-30.77-2.31-29.61c0,0-58.22,4.56-95.84,4.56c-6.76,0-14.71-0.17-23.14-0.43
		c64.29-97.65,174.84-162.11,300.47-162.11c93.64,0,178.88,35.79,242.85,94.41c-1.55-0.08-3.06-0.29-4.67-0.29
		c-35.31,0-60.38,30.77-60.38,63.83c0,29.63,17.08,54.71,35.31,84.34c13.69,23.96,29.65,54.74,29.65,99.19
		c0,30.79-11.82,66.5-27.37,116.26l-35.87,119.88L799.57,331.37z M930.81,810.86l109.85-317.61c20.54-51.3,27.35-92.32,27.35-128.82
		c0-13.23-0.86-25.52-2.43-36.98c28.1,51.23,44.08,110.02,44.06,172.55C1109.63,632.67,1037.71,748.51,930.81,810.86z"/>
</g>
</svg>
