<?xml version="1.0" encoding="utf-8"?>
<!-- Generator: Adobe Illustrator 28.3.0, SVG Export Plug-In . SVG Version: 6.00 Build 0)  -->
<svg version="1.1" id="Layer_1" xmlns="http://www.w3.org/2000/svg" xmlns:xlink="http://www.w3.org/1999/xlink" x="0px" y="0px"
	 viewBox="0 0 1500 1000" style="enable-background:new 0 0 1500 1000;" xml:space="preserve">
<path d="M350.13,669.59c0-36.64,0.16-73.28-0.12-109.92c-0.06-8.32,2.1-13.43,10.15-17.69c59.65-31.55,118.92-63.81,178.48-95.54
	c5.87-3.13,7.84-6.59,7.81-13.17c-0.25-71.78-0.03-143.56-0.32-215.34c-0.04-8.64,2.83-13.29,10.55-17.41
	c61.39-32.75,122.57-65.91,183.64-99.25c6.88-3.76,12.29-3.81,19.16-0.05c61.82,33.85,123.75,67.5,185.84,100.86
	c6.53,3.51,8.78,7.48,8.76,14.7c-0.23,72.08-0.05,144.16-0.28,216.25c-0.02,6.59,2.07,10.05,7.91,13.19
	c58.92,31.65,117.58,63.79,176.55,95.33c8.5,4.55,11.79,9.7,11.74,19.52c-0.43,73.58-0.36,147.17-0.06,220.75
	c0.03,8.31-2.53,13.1-9.91,17.05c-61.87,33.13-123.58,66.55-185.25,100.07c-6.47,3.51-11.88,3.61-18.47,0.03
	c-59.54-32.39-119.27-64.42-178.8-96.84c-5.69-3.1-9.92-3.14-15.61-0.03c-58.67,32.1-117.57,63.8-176.22,95.95
	c-7.68,4.21-13.88,4.5-21.71,0.23c-61.34-33.47-122.85-66.65-184.46-99.62c-7.14-3.82-9.57-8.62-9.51-16.44
	C350.29,744.68,350.13,707.13,350.13,669.59z M1132.78,568.15c-2.2,0.74-3.1,0.91-3.87,1.33c-56.49,30.49-112.93,61.08-169.51,91.4
	c-4.92,2.64-5.65,6.01-5.64,10.84c0.1,66.39,0.06,132.77,0.09,199.16c0,2.54,0.4,5.08,0.68,8.32c2.55-1.05,4.23-1.57,5.74-2.39
	c55.72-30.02,111.4-60.13,167.2-89.99c4.85-2.6,5.81-5.85,5.8-10.78c-0.12-66.69-0.08-133.38-0.1-200.06
	C1133.18,573.67,1132.95,571.37,1132.78,568.15z M366.43,567.86c-0.21,2.81-0.37,4-0.37,5.19c-0.02,67.88,0.05,135.77-0.15,203.65
	c-0.02,5.47,2.28,7.84,6.67,10.2c55.22,29.67,110.35,59.52,165.52,89.29c2.03,1.09,4.22,1.88,7.09,3.14
	c0.2-2.48,0.46-4.16,0.46-5.84c0-67.58-0.12-135.17,0.09-202.75c0.02-5.95-2.72-8.28-7.31-10.75
	c-54.71-29.36-109.32-58.9-163.97-88.37C372.19,570.4,369.79,569.42,366.43,567.86z M740.62,568.09c-2.48,1.07-4.11,1.63-5.61,2.44
	c-55.67,30.09-111.29,60.28-167.06,90.19c-4.83,2.59-5.85,5.71-5.84,10.66c0.12,66.98,0.08,133.95,0.11,200.93
	c0,2.2,0.34,4.39,0.56,7.08c1.99-0.79,3.13-1.11,4.15-1.66c56.22-30.35,112.36-60.82,168.72-90.91c5.65-3.02,5.45-7.04,5.44-11.85
	c-0.02-65.77-0.01-131.55-0.03-197.32C741.06,574.77,740.8,571.89,740.62,568.09z M936.7,879.8c0.23-2.86,0.44-4.31,0.44-5.77
	c0-67.87-0.11-135.75,0.13-203.62c0.02-6.11-3-8.19-7.49-10.6c-54.15-29.12-108.21-58.39-162.32-87.59
	c-2.67-1.44-5.48-2.61-8.3-3.94c-0.56,1.54-0.75,1.82-0.76,2.1c-0.09,69.37-0.25,138.74,0.01,208.11c0.01,2.83,3.31,6.74,6.11,8.29
	c27.56,15.23,55.34,30.07,83.05,45.01C876.86,847.55,906.13,863.32,936.7,879.8z M937.17,226.13c-3.98,2.06-6.36,3.24-8.7,4.5
	c-54.05,29.21-108.05,58.53-162.23,87.49c-6.12,3.27-8.3,6.81-8.26,13.8c0.3,65.43,0.17,130.86,0.2,196.28
	c0,3.08,0.31,6.16,0.5,9.89c2.23-0.99,3.33-1.38,4.35-1.93c56.17-30.34,112.27-60.79,168.57-90.89c5.47-2.92,5.63-6.73,5.62-11.67
	c-0.07-65.13-0.05-130.26-0.05-195.39C937.17,234.67,937.17,231.11,937.17,226.13z M741.08,538.87c0-4.66,0-7.34,0-10.02
	c0-65.76-0.15-131.53,0.21-197.29c0.04-7.26-2.67-10.53-8.55-13.67c-46.29-24.72-92.43-49.73-138.62-74.64
	c-10.21-5.5-20.43-10.98-31.5-16.92c-0.22,3-0.45,4.7-0.45,6.4c-0.02,67.57,0.08,135.13-0.19,202.7c-0.02,5.72,2.67,7.84,6.8,10.07
	c38.26,20.66,76.48,41.4,114.7,62.12C702.14,517.72,720.78,527.85,741.08,538.87z M375.94,553.13c3.13,1.9,4.86,3.06,6.69,4.04
	c54.64,29.44,109.34,58.77,163.86,88.43c5.75,3.13,9.94,2.76,15.49-0.28c35.48-19.48,71.19-38.56,106.78-57.84
	c20.69-11.21,41.31-22.55,62.32-34.03c-1.39-1.17-1.99-1.88-2.76-2.3c-56.69-30.7-113.35-61.45-170.2-91.84
	c-2.62-1.4-7.49-0.69-10.37,0.83c-23.35,12.28-46.48,25-69.67,37.58C444.37,516.01,410.65,534.3,375.94,553.13z M572.14,211.27
	c2.39,1.59,3.31,2.32,4.33,2.88c55.85,30.35,111.65,60.8,167.7,90.77c3.26,1.74,9.31,0.97,12.85-0.92
	c43.93-23.39,87.64-47.19,131.39-70.92c12.54-6.8,25.03-13.67,38.36-20.95c-1.83-1.38-2.65-2.18-3.62-2.7
	c-56.12-30.48-112.2-61.02-168.5-91.18c-2.88-1.54-8.18-0.94-11.28,0.69c-31.03,16.35-61.85,33.11-92.71,49.79
	C624.87,182.68,599.1,196.66,572.14,211.27z M768.58,552.8c2.53,1.65,4.16,2.88,5.93,3.84c55.39,30,110.74,60.07,166.32,89.7
	c3.02,1.61,8.66,0.77,11.97-1c50.26-26.87,100.34-54.08,150.45-81.22c6.4-3.47,12.76-7.01,19.36-10.64
	c-1.16-1.23-1.49-1.8-1.99-2.07c-56.66-30.8-113.29-61.64-170.12-92.13c-2.63-1.41-7.52-0.79-10.38,0.73
	c-36.28,19.3-72.38,38.92-108.51,58.5C810.82,529.77,790.07,541.1,768.58,552.8z"/>
</svg>
