<?xml version="1.0" encoding="utf-8"?>
<!-- Generator: Adobe Illustrator 28.3.0, SVG Export Plug-In . SVG Version: 6.00 Build 0)  -->
<svg version="1.1" id="Layer_1" xmlns="http://www.w3.org/2000/svg" xmlns:xlink="http://www.w3.org/1999/xlink" x="0px" y="0px"
	 viewBox="0 0 1500 1000" style="enable-background:new 0 0 1500 1000;" xml:space="preserve">
<style type="text/css">
	.st0{fill:#F9F6EF;}
	.st1{fill:#321142;}
	.st2{fill:#653D7B;}
</style>
<rect x="2.68" y="2.27" class="st0" width="1500" height="1000"/>
<path class="st1" d="M728.17,471.55c-69.56,0-130.7-9.66-165.83-24.26c29.24,19.34,92.48,32.74,165.83,32.74
	c73.34,0,136.58-13.4,165.83-32.74C858.87,461.88,797.73,471.55,728.17,471.55z"/>
<path class="st1" d="M894.03,353.93c-20.91-58.01-74.8-101.57-140.35-110.44c-0.58-1.15-0.9-2.41-0.9-3.71
	c0-3.11,1.81-5.97,4.71-7.48c6.79-3.54,10.99-8.39,10.99-13.76c0-10.83-17.02-19.6-38.02-19.6c-21,0-38.02,8.78-38.02,19.6
	c0,5.37,4.21,10.23,10.99,13.76c2.9,1.51,4.71,4.38,4.71,7.48c0,1.26-0.31,2.48-0.86,3.6c-65.93,8.6-120.19,52.29-141.19,110.55
	c-71.4,16.42-110.73,41.47-110.73,70.55c0,31.01,42.92,53.75,104.48,67.79c27.59,29.38,93.72,48.87,168.92,49.3l2.58,0.01v-0.01
	c75.2-0.44,141.34-19.93,168.92-49.3c61.56-14.04,104.48-36.78,104.48-67.79C1004.76,395.4,965.43,370.34,894.03,353.93z
	 M730.47,207.45c10,0,18.11,3.15,18.11,7.03c0,3.88-8.11,7.03-18.11,7.03s-18.11-3.15-18.11-7.03
	C712.35,210.6,720.46,207.45,730.47,207.45z M570.3,407.42c0-72.58,54.08-133.41,126.14-148.46c0,0.11-0.03,0.21-0.03,0.32
	c0,10.83,15.25,19.6,34.05,19.6c18.81,0,34.05-8.78,34.05-19.6c0-0.05-0.01-0.09-0.01-0.14c71.65,15.34,125.32,75.98,125.32,148.28
	l0.02,0.57c0.17,2.08-1.53,4.4-2.99,5.99c-5.78,6.28-17.97,12.64-34.93,18.15c-6.77-68.77-34.55-123.73-83.82-164.59
	c-4.26,10.23-17.6,15.83-27.27,14.92c46.9,44.99,70.17,98.06,67.96,159.84c-22.22,3.69-47.8,5.96-75.3,5.96h-4.6
	c-77.58,0-140.12-17.58-155.75-34.58c-1.4-1.52-3.03-3.73-2.86-5.68L570.3,407.42z M730.07,527.99
	c-56.69-0.17-108.97-11.76-140.44-29.85C632,505.34,680.38,509,728.56,509h3.02c48.17,0,96.55-3.66,138.93-10.86
	C839.03,516.24,786.75,527.82,730.07,527.99z M894.99,479.65l-1.1-0.82c-0.33,0.44-0.7,0.87-1.05,1.3
	c-42.23,9.33-96.81,15.29-161.27,15.29h-3.02c-64.46,0-119.03-5.95-161.27-15.29c-0.35-0.43-0.72-0.86-1.05-1.3l-1.1,0.82
	c-61.49-13.89-96.18-35.01-96.18-55.18c0-20.26,35.25-41.25,92.54-55.48c-3.08,12.26-4.77,25.03-4.79,38.17
	c-0.35,5.4,1.81,10.68,6.43,15.7c20.77,22.58,90.48,38.97,165.75,38.97h4.6c74.05,0,142.76-16.26,163.36-38.66
	c4.71-5.12,6.91-10.5,6.55-16c-0.02-13.14-1.71-25.91-4.79-38.17c57.3,14.22,92.54,35.22,92.54,55.48
	C991.17,444.64,956.48,465.76,894.99,479.65z"/>
<g>
	<path class="st1" d="M423.38,733.97v-6.52c13.38-1.23,14.97-2.29,14.97-17.08v-67.08c0-14.79-1.76-16.2-14.97-17.26v-6.51h54.41
		v6.51c-13.21,1.23-14.97,2.47-14.97,17.26v67.08c0,14.61,1.59,15.67,14.97,17.08v6.52H423.38z"/>
	<path class="st1" d="M615.48,626.03c-10.74,1.41-14.09,3.7-14.61,11.62c-0.53,6.87-1.06,12.85-1.06,28.17v70.08h-9.86l-73.42-88.04
		v39.79c0,15.32,0.35,22.18,0.88,27.29c0.71,7.75,4.4,11.8,17.43,12.5v6.52h-43.67v-6.52c10.04-0.88,14.44-3.52,15.49-11.8
		c0.71-6.34,1.06-12.68,1.06-27.99v-41.73c0-5.81-0.35-9.69-3.7-14.26c-3.17-4.4-7.4-4.93-14.79-5.64v-6.51h34.33l67.08,78v-31.69
		c0-15.32-0.18-21.13-0.71-27.64c-0.53-7.57-3.35-11.27-17.96-12.15v-6.51h43.49V626.03z"/>
	<path class="st1" d="M707.92,648.75c-1.94-6.69-4.75-13.21-7.75-16.55c-3.7-3.87-5.99-4.58-14.44-4.58h-13.21
		c-5.98,0-6.69,0.35-6.69,6.34v38.39h18.84c10.39,0,11.8-2.64,14.44-14.97h6.52v39.09h-6.69c-1.94-11.97-4.58-14.97-14.26-14.97
		h-18.84v27.47c0,16.2,1.06,17.43,16.9,18.49v6.52H626.4v-6.52c13.38-1.23,14.97-2.29,14.97-18.49v-64.8
		c0-15.67-1.59-17.08-14.97-18.14v-6.51h59.69c15.14,0,23.95-0.18,26.76-0.35c0.18,2.99,1.06,18.14,1.94,28.52L707.92,648.75z"/>
	<path class="st1" d="M850.19,626.03c-11.27,1.06-14.26,4.4-14.97,10.74c-0.53,5.28-0.88,11.27-0.88,23.59v23.07
		c0,15.14-2.47,30.46-12.5,41.02c-8.1,8.45-20.6,12.15-33.1,12.15c-11.62,0-23.24-2.47-31.52-9.16
		c-10.21-7.75-15.14-18.49-15.14-38.21V644.7c0-16.2-1.59-17.43-14.97-18.66v-6.51h54.41v6.51c-13.2,1.23-14.79,2.47-14.79,18.66
		v46.84c0,19.72,9.68,32.75,28.52,32.75c20.95,0,30.11-15.5,30.11-41.91v-22.01c0-12.15-0.53-18.49-0.88-23.77
		c-0.7-8.1-5.63-9.86-17.96-10.57v-6.51h43.67V626.03z"/>
	<path class="st1" d="M925.03,648.57c-3.52-11.27-8.45-24.12-24.65-24.12c-10.21,0-16.9,7.22-16.9,17.08
		c0,9.68,6.52,15.49,22.01,23.24c18.84,9.33,30.81,18.49,30.81,35.92c0,20.78-17.26,35.92-42.43,35.92
		c-11.27,0-21.31-2.99-29.58-5.46c-1.06-4.05-4.05-22.36-5.28-30.64l6.87-1.58c3.52,11.09,13.38,30.28,30.64,30.28
		c10.74,0,17.26-6.69,17.26-17.96c0-10.21-6.34-16.2-21.13-24.12c-18.31-9.86-30.28-18.66-30.28-36.98
		c0-18.49,14.44-33.1,40.85-33.1c12.15,0,21.3,2.64,25.18,3.17c0.71,6.52,1.94,15.67,3.35,26.76L925.03,648.57z"/>
	<path class="st1" d="M1046.88,704.03c-0.88,4.75-5.81,25-7.4,29.93H948.1v-6.34c16.02-1.59,17.08-2.47,17.08-17.26v-67.26
		c0-14.97-2.11-16.02-14.09-17.08v-6.51h57.22c18.49,0,24.65-0.18,27.12-0.35c0.17,3.17,1.06,17.61,1.76,28.52l-6.87,0.88
		c-1.59-5.98-4.58-13.21-7.57-16.37c-3.17-3.52-5.46-4.58-14.44-4.58h-11.45c-6.69,0-7.4,0.35-7.4,6.34v36.8h17.26
		c9.86,0,11.62-2.64,14.26-15.14h6.87v39.27H1021c-2.82-13.03-4.22-15.14-14.44-15.14h-17.08v30.28c0,12.15,0.35,15.85,11.27,16.02
		h12.5c9.86,0,12.5-1.23,16.38-5.99c4.4-5.1,7.92-11.62,10.74-17.61L1046.88,704.03z"/>
</g>
<g>
	<path class="st2" d="M432.9,763.66c3,0,5.43,0.31,7.28,0.92c1.86,0.61,3.23,1.65,4.1,3.11c0.87,1.47,1.31,3.5,1.31,6.1
		c0,1.58-0.21,2.97-0.62,4.17c-0.41,1.2-1.1,2.17-2.05,2.89c-0.96,0.73-2.26,1.19-3.9,1.38v0.25c0.59,0.1,1.21,0.33,1.85,0.69
		c0.64,0.36,1.24,0.9,1.8,1.61c0.56,0.71,0.97,1.65,1.23,2.84l2.96,10.62h-7.95l-2.62-10.37c-0.3-1.12-0.73-1.89-1.31-2.32
		c-0.57-0.43-1.38-0.64-2.39-0.64c-2.24,0-4.13-0.01-5.66-0.03c-1.53-0.02-2.81-0.04-3.85-0.07c-1.04-0.03-1.97-0.07-2.79-0.1
		l0.15-5.48h12.3c1.32,0,2.36-0.14,3.14-0.42c0.77-0.28,1.32-0.78,1.63-1.51c0.31-0.73,0.47-1.73,0.47-3.01
		c0-1.32-0.16-2.33-0.47-3.04c-0.31-0.71-0.86-1.2-1.63-1.48c-0.77-0.28-1.82-0.42-3.14-0.42c-3.1,0-5.72,0.02-7.86,0.05
		c-2.14,0.03-3.61,0.08-4.4,0.15l-0.74-5.38c1.38-0.17,2.68-0.28,3.9-0.35c1.22-0.06,2.55-0.11,4-0.12
		C429.12,763.66,430.86,763.66,432.9,763.66z M427.22,764.15v34.08h-7.46v-34.08H427.22z"/>
	<path class="st2" d="M488.37,764c1.84,0,3.71,0.01,5.58,0.02c1.88,0.02,3.72,0.06,5.53,0.12c1.81,0.07,3.51,0.18,5.09,0.34
		l-0.35,5.48h-13.09c-0.82,0-1.44,0.21-1.85,0.64c-0.41,0.43-0.62,1.05-0.62,1.88v17.39c0,0.82,0.21,1.45,0.62,1.88
		c0.41,0.43,1.03,0.64,1.85,0.64h13.09l0.35,5.48c-1.58,0.13-3.28,0.24-5.09,0.32s-3.65,0.13-5.53,0.15
		c-1.88,0.02-3.74,0.02-5.58,0.02c-2.17,0-3.93-0.63-5.26-1.9c-1.33-1.27-2-2.92-2-4.97v-20.65c0-2.07,0.67-3.74,2-4.99
		C484.45,764.63,486.2,764,488.37,764z M482,777.83h20.4v5.33H482V777.83z"/>
	<path class="st2" d="M552.54,763.56c1.61,0,2.99,0.04,4.13,0.12c1.14,0.08,2.18,0.21,3.14,0.37c0.96,0.17,1.94,0.4,2.96,0.69
		l-0.59,5.53c-1.09-0.07-2.08-0.11-2.99-0.15c-0.91-0.03-1.88-0.06-2.91-0.07c-1.04-0.02-2.28-0.03-3.73-0.03
		c-1.68,0-2.99,0.33-3.93,0.99c-0.94,0.66-1.61,1.8-2,3.43c-0.4,1.63-0.59,3.88-0.59,6.74s0.2,5.11,0.59,6.74
		c0.4,1.63,1.06,2.77,2,3.43c0.94,0.66,2.25,0.99,3.93,0.99c2.27,0,4.18-0.03,5.73-0.1c1.55-0.07,3.08-0.18,4.59-0.35l0.64,5.53
		c-1.58,0.49-3.19,0.85-4.84,1.06c-1.65,0.21-3.69,0.32-6.13,0.32c-3.52,0-6.35-0.57-8.47-1.7c-2.12-1.14-3.65-2.99-4.59-5.56
		c-0.94-2.57-1.41-6.03-1.41-10.37c0-4.35,0.47-7.8,1.41-10.37c0.94-2.57,2.47-4.42,4.59-5.56
		C546.19,764.12,549.02,763.56,552.54,763.56z"/>
	<path class="st2" d="M611.03,763.66c3,0,5.43,0.31,7.28,0.92c1.86,0.61,3.23,1.65,4.1,3.11c0.87,1.47,1.31,3.5,1.31,6.1
		c0,1.58-0.21,2.97-0.62,4.17c-0.41,1.2-1.1,2.17-2.05,2.89c-0.96,0.73-2.26,1.19-3.9,1.38v0.25c0.59,0.1,1.21,0.33,1.85,0.69
		c0.64,0.36,1.24,0.9,1.8,1.61c0.56,0.71,0.97,1.65,1.23,2.84l2.96,10.62h-7.95l-2.62-10.37c-0.3-1.12-0.73-1.89-1.31-2.32
		c-0.57-0.43-1.38-0.64-2.39-0.64c-2.24,0-4.13-0.01-5.66-0.03c-1.53-0.02-2.81-0.04-3.85-0.07c-1.04-0.03-1.97-0.07-2.79-0.1
		l0.15-5.48h12.3c1.32,0,2.36-0.14,3.14-0.42c0.77-0.28,1.32-0.78,1.63-1.51c0.31-0.73,0.47-1.73,0.47-3.01
		c0-1.32-0.16-2.33-0.47-3.04c-0.31-0.71-0.86-1.2-1.63-1.48c-0.77-0.28-1.82-0.42-3.14-0.42c-3.1,0-5.72,0.02-7.86,0.05
		c-2.14,0.03-3.61,0.08-4.4,0.15l-0.74-5.38c1.38-0.17,2.68-0.28,3.9-0.35c1.22-0.06,2.55-0.11,4-0.12
		C607.24,763.66,608.98,763.66,611.03,763.66z M605.35,764.15v34.08h-7.46v-34.08H605.35z"/>
	<path class="st2" d="M686.75,764.15v20.5c0,3.46-0.43,6.23-1.28,8.32c-0.86,2.09-2.26,3.61-4.22,4.54
		c-1.96,0.94-4.57,1.41-7.83,1.41c-3.46,0-6.22-0.47-8.3-1.41c-2.08-0.94-3.57-2.45-4.49-4.54c-0.92-2.09-1.38-4.87-1.38-8.32v-20.5
		h7.56v20.5c0,2.14,0.19,3.81,0.57,5.01c0.38,1.2,1.03,2.05,1.95,2.54c0.92,0.5,2.16,0.74,3.71,0.74c1.55,0,2.77-0.25,3.68-0.74
		c0.91-0.49,1.55-1.34,1.93-2.54c0.38-1.2,0.57-2.87,0.57-5.01v-20.5H686.75z"/>
	<path class="st2" d="M730.56,764.15v34.08h-7.51v-34.08H730.56z"/>
	<path class="st2" d="M792.56,764.15v5.93H764.5v-5.93H792.56z M782.28,764.15v34.08h-7.56v-34.08H782.28z"/>
	<path class="st2" d="M861.37,764.15c1.78,0,2.7,0.92,2.77,2.77l1.28,31.32h-6.96l-1.14-28.25h-0.89l-5.48,21.24
		c-0.3,1.58-1.28,2.37-2.96,2.37h-4.74c-1.68,0-2.7-0.79-3.06-2.37l-5.48-21.24h-0.84l-1.04,28.25h-7.02l1.28-31.32
		c0.07-1.84,1-2.77,2.82-2.77h7.06c1.61,0,2.6,0.81,2.96,2.42l4.4,17.14c0.2,0.79,0.36,1.59,0.49,2.4c0.13,0.81,0.28,1.62,0.44,2.45
		h0.64c0.16-0.82,0.32-1.64,0.47-2.45c0.15-0.81,0.3-1.62,0.47-2.45l4.35-17.09c0.33-1.61,1.32-2.42,2.96-2.42H861.37z"/>
	<path class="st2" d="M908.29,764c1.84,0,3.71,0.01,5.58,0.02c1.88,0.02,3.72,0.06,5.53,0.12c1.81,0.07,3.51,0.18,5.09,0.34
		l-0.35,5.48h-13.09c-0.82,0-1.44,0.21-1.85,0.64c-0.41,0.43-0.62,1.05-0.62,1.88v17.39c0,0.82,0.21,1.45,0.62,1.88
		c0.41,0.43,1.03,0.64,1.85,0.64h13.09l0.35,5.48c-1.58,0.13-3.28,0.24-5.09,0.32s-3.65,0.13-5.53,0.15
		c-1.88,0.02-3.74,0.02-5.58,0.02c-2.17,0-3.93-0.63-5.26-1.9c-1.33-1.27-2-2.92-2-4.97v-20.65c0-2.07,0.67-3.74,2-4.99
		C904.36,764.63,906.12,764,908.29,764z M901.92,777.83h20.4v5.33h-20.4V777.83z"/>
	<path class="st2" d="M988.31,764.15v31.37c0,1.81-0.91,2.72-2.72,2.72h-4.15c-0.82,0-1.45-0.19-1.88-0.57
		c-0.43-0.38-0.82-0.95-1.18-1.7l-9.44-17.88c-0.39-0.76-0.78-1.6-1.16-2.52s-0.7-1.81-0.96-2.67h-0.54
		c0.1,0.89,0.18,1.79,0.25,2.69c0.06,0.91,0.1,1.8,0.1,2.69v19.96h-7.16v-31.37c0-1.81,0.92-2.71,2.77-2.71h4.1
		c0.79,0,1.39,0.19,1.8,0.57c0.41,0.38,0.81,0.95,1.21,1.7l9.14,17.34c0.39,0.76,0.8,1.6,1.23,2.52s0.84,1.88,1.24,2.87h0.59
		c-0.1-0.99-0.17-1.95-0.22-2.89c-0.05-0.94-0.07-1.87-0.07-2.79l-0.05-19.31H988.31z"/>
	<path class="st2" d="M1050.26,764.15v5.93h-28.06v-5.93H1050.26z M1039.98,764.15v34.08h-7.56v-34.08H1039.98z"/>
</g>
</svg>
